<svg xmlns="http://www.w3.org/2000/svg" viewBox="0 0 512 512" style="height: 512px; width: 512px;"><defs><linearGradient x1="0" x2="1" y1="0" y2="1" id="lorc-stone-tower-gradient-1"><stop offset="0%" stop-color="#cda09f" stop-opacity="1"></stop><stop offset="100%" stop-color="#9f514e" stop-opacity="1"></stop></linearGradient><linearGradient x1="0" x2="1" y1="0" y2="1" id="lorc-stone-tower-gradient-2"><stop offset="0%" stop-color="#a3bbd8" stop-opacity="1"></stop><stop offset="100%" stop-color="#5e82af" stop-opacity="1"></stop></linearGradient><linearGradient x1="0" x2="1" y1="0" y2="1" id="lorc-stone-tower-gradient-4"><stop offset="0%" stop-color="#a3bbd8" stop-opacity="0.06"></stop><stop offset="100%" stop-color="#3d4044" stop-opacity="0"></stop></linearGradient><linearGradient x1="0" x2="1" y1="0" y2="1" id="lorc-stone-tower-gradient-5"><stop offset="0%" stop-color="#a3bbd8" stop-opacity="0.01"></stop><stop offset="100%" stop-color="#5e82af" stop-opacity="0"></stop></linearGradient><linearGradient x1="0" x2="1" y1="0" y2="1" id="lorc-stone-tower-gradient-6"><stop offset="0%" stop-color="#a3bbd8" stop-opacity="0"></stop><stop offset="100%" stop-color="#5e82af" stop-opacity="0"></stop></linearGradient></defs><g class="" transform="translate(0,0)" style=""><path d="M71 22.406v102.53h202.25v18.69h-73.22v36.968h-18.686v-36.97H79.156l43.375 53.782h180.44v18.688H180.905v36.97H162.22v-36.97h-39.407v163.562h58.53v-44.75H157.47V316.22h74.155V282.56H193.72v-18.687h97.218v18.688h-40.625v33.656h73.28v18.686h-32.437v44.75h26.313v18.688h-63.69l-2.686 74.03-18.688-.687 2.656-73.343H93.032V398h-.22l-28.687 92.844h79.844l9.81-70.688 18.5 2.563-9.468 68.124H453.25L424.562 398h-30.03V197.78l51.812-64.25V22.407h-64.406v52.438h-39.22V22.406h-65.124v52.438h-38.53V22.406h-65.126v52.438h-38.5V22.406H71zm129.03 312.5v44.75h72.44v-44.75h-72.44z" fill="url(#lorc-stone-tower-gradient-1)"></path></g><g class="" transform="translate(256,256)" style=""><g><circle cx="128" cy="128" r="128" fill="#ffffff" fill-opacity="1"></circle><circle stroke="#9f514e" stroke-opacity="1" fill="#ffffff" fill-opacity="1" stroke-width="18" cx="128" cy="128" r="101"></circle><path fill="#9f514e" fill-opacity="1" d="M64 119v18h128v-18z"></path></g></g></svg>